<svg width="371" height="370" viewBox="0 0 371 370" fill="none" xmlns="http://www.w3.org/2000/svg">
<path fill-rule="evenodd" clip-rule="evenodd" d="M287.504 128.531C275.028 124.556 262.022 123.621 249.093 122.225C253.213 121.317 257.673 120.102 261.868 119.636C265.729 119.213 268.027 120.804 271.661 122.071C278.147 124.336 285.393 127.088 291.031 129.719C289.862 129.304 288.686 128.908 287.504 128.531ZM269.737 133.494C256.05 130.935 242.037 130.378 228.369 127.703C231.758 126.666 233.678 125.762 237.28 126.105C242.633 126.614 248.05 127.712 253.281 128.877C260.873 130.569 268.533 132.393 275.929 134.793C273.874 134.315 271.81 133.882 269.737 133.494ZM270.395 136.166C269.459 136.545 266.176 135.261 265.115 135.031C266.137 135.226 269.797 136.408 270.395 136.166ZM243.144 135.883C232.434 135.21 221.594 134.873 210.866 134.928C212.791 134.209 214.631 133.306 216.507 132.465C221.639 130.165 222.531 130.531 227.654 132.044C234.261 133.996 241.03 135.107 247.804 136.238C246.253 136.093 244.699 135.975 243.143 135.883L243.144 135.883ZM230.646 142.058C215.86 143.179 201.275 144.969 186.516 146.622C189.666 145.349 192.696 143.729 195.706 142.165C200.353 139.753 203.92 140.093 209.1 140.092C214.602 140.089 220.006 140.736 225.475 141.358C226.825 141.514 232.109 141.947 230.646 142.058ZM207.863 130.819C215.756 123.153 224.812 116.009 234.089 110.038C239.978 106.248 246.382 101.968 253.301 105.255C241.857 105.73 226.906 116.11 220.133 125.008C219.808 125.429 219.311 125.721 218.972 126.135C217.701 127.679 219.086 127.847 218.22 128.797C218.12 128.908 213.496 130.796 214.11 130.544C210.973 131.838 207.764 132.924 204.622 134.2C205.685 133.055 206.763 131.927 207.863 130.819L207.863 130.819ZM251.897 112.454C244.127 118.952 235.698 122.411 226.34 125.671C234.886 120.174 243.455 115.678 252.85 111.742C252.531 111.978 252.214 112.215 251.897 112.454L251.897 112.454ZM261.566 114.684C263.186 114.165 263.909 114.299 264.269 116.223C260.084 116.064 258.096 116.637 254.142 117.597C256.546 116.455 259.027 115.482 261.566 114.684ZM266.702 115.734C266.41 115.206 266.286 114.198 266.083 113.682C269.19 113.632 271.829 114.289 274.469 115.919C273.594 115.927 266.918 116.697 266.702 115.733L266.702 115.734ZM140.713 187.866C163.427 185.062 185.213 184.331 208.025 186.557C190.839 188.063 173.58 191.516 156.669 194.868C143.09 197.559 129.322 199.012 115.705 201.445C118.228 198.818 120.587 196.036 123.157 193.447C127.621 188.952 134.31 188.666 140.713 187.866ZM218.806 194.564C222.907 194.144 226.999 193.635 231.077 193.038C235.511 192.384 242.583 189.461 247.044 190.341C222.687 197.572 196.367 200.903 171.328 204.977C160.92 206.67 150.324 209.146 140.242 212.288C125.685 216.821 109.266 216.797 95.3734 223.166C99.6218 218.713 104.275 212.343 109.115 208.722C112.633 206.088 118.469 205.869 122.655 205.317C129.546 204.408 136.471 203.702 143.38 202.959C168.533 200.25 193.645 197.193 218.806 194.564ZM91.4347 218.675C89.3914 220.924 87.4026 223.222 85.4701 225.567C88.9768 209.11 88.8175 191.753 90.7922 175.045C91.9089 165.598 92.9568 156.045 94.4587 146.66C95.7868 138.373 96.1397 127.083 100.581 119.924C103.896 123.004 106.347 126.273 105.689 130.749C104.843 136.506 102.364 142.039 101.211 147.75C99.9164 154.168 99.0398 160.701 98.2395 167.198C97.0084 177.19 96.7217 187.355 97.2506 197.403C97.3935 200.227 97.5752 203.05 97.7956 205.869C97.8924 207.099 98.5296 209.196 98.2582 210.346C97.5954 213.174 93.5722 216.307 91.4347 218.675ZM115.924 150.152C117.87 140.904 119.056 130.159 123.106 121.49C125.353 116.673 127.515 114.958 130.874 120.163C133.272 123.876 129.507 132.027 128.32 136.695C124.955 149.938 123.179 163.527 120.953 176.993C120.372 180.522 120.2 184.011 119.824 187.544C119.512 190.472 119.593 190.299 117.906 192.504C116.822 193.928 115.111 195.138 113.804 196.388C110.376 199.665 106.901 202.898 103.508 206.212C108.668 187.742 111.987 168.896 115.924 150.152ZM369.876 192.181C366.748 188.019 362.78 184.267 358.722 181.052C353.1 176.592 346.215 173.984 340.601 169.695C335.879 166.085 331.978 161.281 327.152 157.625C319.486 151.823 311.597 146.997 302.62 143.51C314.053 147.413 325.017 152.111 334.175 160.208C334.949 160.894 341.658 169.485 343.046 168.664C343.996 168.11 339.97 161.892 339.131 160.444C332.942 149.796 320.242 142.982 310.206 136.144C298.872 128.421 286.495 124.088 273.582 119.816C285.314 120.465 295.198 123.479 305.026 130.082C309.86 133.328 314.333 137.12 319.316 140.134C323.733 142.807 327.976 145.271 331.788 148.856C336.058 152.876 339.489 157.255 342.323 162.39C343.388 164.321 348.589 176.013 348.728 168.587C348.797 164.927 344.175 159.711 342.305 157.067C339.151 152.612 335.492 148.599 331.663 144.719C325.149 138.124 318.932 131.28 311.201 126.078C306.804 123.117 302.199 120.771 297.169 119.08C293.283 117.772 289.295 116.833 285.219 116.371C281.347 115.933 280.975 115.979 277.894 113.978C275.247 112.258 272.987 110.417 270.025 109.189C267.007 107.937 264.438 107.758 262.192 106.05C259.543 104.031 258.515 101.663 255.097 100.399C251.953 99.235 248.738 99.4908 245.459 99.7525C234.615 100.616 223.605 103.365 214.633 109.779C206.705 115.449 201.315 124.499 197.483 133.323C195.367 138.192 196.804 138.009 191.121 140.807C185.146 143.75 179.205 146.641 173.392 149.925C182.976 138.01 191.308 124.818 201.815 113.651C207.433 107.687 212.943 101.626 218.56 95.6647C220.218 93.9082 233.315 81.2559 225.958 81.7042C224.257 81.8068 221.698 84.0807 220.135 84.8272C217.015 86.3247 213.917 87.6518 211.033 89.6089C206.034 93.0017 201.954 97.223 197.866 101.613C187.277 112.986 177.733 125.15 172.848 140.083C171.691 143.617 171.268 147.601 169.455 150.843C168.178 153.131 166.679 153.921 164.085 155.61C159.638 158.503 155.316 161.477 151.104 164.711C161.872 148.759 168.818 130.906 177.302 113.729C188.214 91.6438 193.206 66.8571 202.384 44.0381C204.165 39.6121 206.333 34.7418 209.321 30.9746C210.229 29.8289 213.102 28.1115 213.353 26.6669C214.015 22.8558 211.434 23.8788 209.54 24.9747C204.896 27.659 200.388 33.7145 197.215 37.7963C192.597 43.7333 187.921 50.1737 183.921 56.5705C170.141 78.6021 161.007 103.604 153.42 128.35C149.85 139.983 146.169 151.808 144.413 163.871C143.566 169.696 144.529 169.852 139.663 173.839C134.582 178.004 129.726 182.422 124.685 186.629C129.278 177.193 132.016 165.491 135.33 155.481C138.801 144.994 142.748 134.665 146.275 124.194C152.011 107.155 156.304 89.7099 160.434 72.2281C162.627 62.9332 164.683 53.6313 166.563 44.271C168.979 32.2424 171.436 18.3532 176.825 7.25786C177.629 5.60768 180.895 -2.05958 176.169 0.580896C174.003 1.78802 171.438 9.68879 170.333 11.8189C164.072 23.9164 158.797 36.1999 154.085 48.9746C145.733 71.626 139.872 94.8385 133.255 118.002C129.945 113.482 123.074 108.507 117.137 110.43C111.804 112.158 109.182 119.75 107.505 124.507C107.318 121.216 103.282 115.078 100.135 114.868C98.3469 114.748 95.2658 116.442 93.7706 117.149C90.074 118.897 85.8753 121.108 83.57 124.548C78.8456 131.606 79.743 142.683 78.9043 150.852C76.4065 175.213 76.8567 198.735 79.6123 222.997C80.2418 228.549 81.0023 231.124 77.8447 235.5C74.2381 240.499 70.7611 245.414 67.2099 250.108C68.3509 247.934 67.319 241.29 67.3056 238.971C67.2684 232.762 67.3314 226.606 67.6531 220.401C68.3131 207.623 67.6262 194.415 66.9814 181.628C65.6536 155.283 65.7717 129.273 66.6572 102.935C66.8426 97.3845 66.7173 91.8686 66.6828 86.3214C66.6682 84.0311 67.4254 78.4209 63.7887 79.7618C62.7327 80.1507 61.9559 84.2468 61.6493 85.2857C58.8173 94.8619 57.9288 105.222 56.6322 115.057C55.4542 124.002 54.378 132.961 53.6316 141.951C52.1977 159.22 52.6733 175.99 52.7624 193.288C52.8371 207.537 54.3832 223.03 57.018 236.176C58.2536 242.341 60.4008 249.003 61.0266 255.217C61.4063 258.959 59.2171 260.345 56.7036 263.742C54.1599 267.178 51.6474 270.64 49.2198 274.159C49.4534 268.767 47.9164 263.192 47.5553 257.797C47.2527 253.29 46.9659 248.804 46.5597 244.302C46.2367 240.756 45.9324 237.207 45.6179 233.658C43.9972 215.391 42.4144 197.164 39.4244 179.064C34.8277 151.271 29.8137 122.707 29.9968 94.432C30.0332 89.0358 30.207 83.6433 30.2689 78.2457C30.3145 74.1774 29.9401 70.1414 29.916 66.0788C29.9033 64.007 30.8468 60.0006 30.1558 57.9361C28.1563 51.9625 26.4251 58.637 26.3698 61.3802C26.3418 62.8256 26.2554 64.2667 26.2334 65.7115C26.1007 74.7897 25.3202 83.7436 24.8729 92.8115C24.2311 105.887 24.8067 118.897 25.2421 131.965C25.7176 146.201 25.3627 160.535 26.894 174.718C28.869 193 32.8224 211.176 35.3043 229.41C36.3842 237.351 37.8903 245.204 38.7079 253.182C39.4704 260.637 42.1167 267.967 43.7288 274.855L43.7198 274.327C44.3445 277.254 45.3247 278.718 44.4354 281.404C43.8085 283.292 42.0882 285.275 41.058 287.009C38.8607 290.696 36.7517 294.427 34.6421 298.164C36.5113 288.677 33.9754 276.707 31.9679 267.388C29.7491 257.076 27.0452 246.515 23.8803 236.458C21.4191 228.638 19.3825 220.951 18.6386 212.81C17.6477 201.969 14.699 191.543 13.1132 180.802C11.617 170.662 9.09792 160.62 6.95095 150.581C6.46728 148.322 4.30845 137.512 0.798352 142.388C-0.0670969 143.591 0.994101 146.786 1.13021 148.029C1.4646 151.109 1.67308 154.14 1.81155 157.231C2.70928 176.861 6.82113 196.788 10.0444 216.128C12.1041 228.485 14.2852 240.887 17.2947 253.049C19.6384 262.519 20.9045 272.357 23.5041 281.694C24.7509 286.172 26.0174 290.75 28.0096 294.955C29.7428 298.614 31.4898 299.637 30.8788 303.58C30.0041 309.218 25.2057 315.07 23.0406 320.528C21.2699 324.991 19.4642 329.46 17.7771 333.954C15.4202 340.249 13.2115 346.655 11.1438 353.049C9.94369 356.752 7.61556 361.532 7.39787 365.299C7.06619 371.02 10.3039 369.385 12.0038 365.558C13.1473 362.982 14.0603 360.212 15.1358 357.592C23.0276 338.405 30.2532 317.831 42.0379 300.614C46.9537 293.424 60.544 291.693 68.5177 289.187C87.6995 283.151 108.45 282.356 128.353 280.152C144.402 278.377 160.191 276.745 175.903 272.799C178.198 272.224 220.078 259.895 219.027 257.744C219.613 258.951 173.209 269.276 169.493 269.58C157.839 270.529 146.222 270.783 134.543 271.276C105.329 272.51 76.5938 273.209 50.0501 287.013C53.3993 281.743 57.4053 271.796 63.2851 269.756C74.6172 265.82 86.5606 263.278 97.9772 259.439C109.845 255.455 122.033 252.786 133.971 249.094C145.895 245.405 157.793 241.584 169.899 238.482C182.067 235.365 194.637 232.116 207.281 232.518C212.148 232.673 217.029 233.106 221.875 233.564C223.705 233.737 238.272 236.432 230.395 233.085C225.294 230.916 218.616 230.748 213.152 229.952C206.886 229.042 200.879 228.233 194.546 228.282C180.757 228.388 166.904 231.62 153.575 234.819C137.622 238.644 121.016 242.44 105.788 248.597C91.8324 254.241 77.8049 259.659 63.8483 265.232C66.386 261.347 69.0849 257.578 71.7251 253.761C73.0074 251.905 74.3602 248.892 76.1809 247.625C78.9598 245.688 84.8071 245.186 88.0347 244.111C101.021 239.793 114.066 234.722 127.373 231.511C148.769 226.346 170.675 223.143 192.204 218.546C204.768 215.867 218.074 213.502 230.921 213.731C235.753 213.82 240.593 213.644 245.338 214.666C247.017 215.025 249.13 215.956 250.859 216.151C256.032 216.732 252.194 214.244 249.056 213.155C224.183 204.54 196.769 211.423 171.698 214.925C155.118 217.239 138.749 219.599 122.918 225.302C108.332 230.555 94.387 237.562 79.5581 242.175C83.4443 236.651 86.9089 230.931 93.1185 227.892C99.9902 224.532 107.233 223.071 114.733 221.797C130.325 219.142 145.813 215.741 161.456 213.428C175.826 211.307 190.171 209.424 204.415 206.527C218.284 203.702 232.072 202.053 245.309 196.715C249.5 195.024 254.581 192.094 259.056 191.839C264.856 191.509 271.879 193.247 277.567 194.109C291.419 196.205 305.798 198.366 318.604 204.232C331.169 209.989 339.701 219.035 349.321 228.492C352.351 231.476 355.333 234.51 358.355 237.502C359.028 238.169 363.044 243.177 363.872 243.241C368.995 243.625 359.331 233.469 357.663 231.388C346.138 217.007 333.666 205.014 316.712 197.178C302.264 190.499 287.159 186.154 271.403 183.929C271.443 181.081 283.05 180.94 283.368 177.99C283.789 174.054 275.667 177.991 274.057 178.476C271 179.393 268.027 180.541 264.955 181.41C257.902 183.403 250.098 180.946 242.932 180.026C234.293 178.92 225.54 178.196 216.851 177.672C188.089 175.934 160.493 176.886 132.558 184.592C137.57 180.2 142.799 176.027 148.097 171.986C150.16 170.414 151.732 168.973 154.069 168.235C158.017 166.988 162.703 167.546 166.818 167.143C183.085 165.558 199.278 163.776 215.635 163.275C242.554 162.451 270.621 167.287 296.15 175.849C308.605 180.027 320.824 184.091 331.639 191.782C334.142 193.56 336.369 195.601 338.645 197.655C339.585 198.505 345.329 204.682 345.621 204.649C348.112 204.383 336.56 191.599 334.882 189.965C312.324 168.036 283.057 163.048 253.172 158.643C221.921 154.035 190.554 156.478 159.767 163.423C165.914 159.587 171.956 153.012 178.858 150.782C184.1 149.086 190.754 149.409 196.059 148.866C211.442 147.285 227.567 149.974 242.984 151.067C260.4 152.301 277.318 154.536 294.157 159.179C302.773 161.554 311.163 164.068 319.569 167.153C326.231 169.598 331.667 171.103 337.058 175.569C339.232 177.387 345.702 182.215 349.202 185.497C350.629 186.838 352.108 189.67 353.722 190.343C359.732 192.852 351.755 183.057 350.445 181.356C355.223 184.212 359.683 187.518 363.925 191.037C364.764 191.736 365.567 192.268 366.416 192.906C367.414 193.657 367.936 195.848 369.644 195.117C371.034 194.52 370.54 193.087 369.876 192.181Z" fill="#012A32"/>
</svg>
