<svg width="129" height="136" viewBox="0 0 129 136" fill="none" xmlns="http://www.w3.org/2000/svg">
<path d="M59.4232 116.545C61.0286 118.432 61.8346 120.553 61.8446 122.908C61.8541 125.26 60.9853 127.717 59.2374 130.274C58.2933 131.659 57.0995 132.854 55.7177 133.798C54.3228 134.755 52.7635 135.395 51.0422 135.716C49.3213 136.037 47.4659 135.969 45.4756 135.512C43.489 135.055 41.4193 134.086 39.2769 132.607C37.4343 131.338 35.9169 129.881 34.7169 128.236C33.5211 126.593 32.688 124.847 32.2247 122.996C31.7594 121.15 31.7009 119.255 32.0422 117.313C32.3839 115.372 33.1946 113.463 34.4754 111.588C34.8903 110.979 35.3219 110.439 35.7743 109.969C36.2005 109.522 36.6431 109.092 37.1012 108.678C37.5332 108.287 37.93 107.929 38.285 107.595C38.6415 107.264 38.9314 106.934 39.1581 106.604C39.3467 106.326 39.4926 105.98 39.5905 105.56C39.6903 105.144 39.6932 104.811 39.6048 104.563L49.5584 111.425C48.6816 111.08 47.6997 110.815 46.62 110.63C45.5751 110.447 44.5123 110.389 43.4538 110.456C42.4472 110.522 41.4586 110.756 40.5292 111.149C39.6119 111.544 38.8853 112.133 38.3516 112.915C37.8368 113.668 37.5432 114.55 37.5042 115.461C37.4591 116.399 37.6696 117.391 38.1406 118.441C38.6115 119.491 39.3563 120.576 40.379 121.689C41.3993 122.803 42.7186 123.915 44.3359 125.03C45.6966 125.969 47.0406 126.71 48.3622 127.247C49.6834 127.785 50.9134 128.103 52.0535 128.2C53.1941 128.297 54.2301 128.163 55.1645 127.803C56.0988 127.443 56.8673 126.819 57.4742 125.932C58.4423 124.515 58.9332 123.101 58.9456 121.695C58.9579 120.288 58.4884 118.791 57.5322 117.2L59.4232 116.545Z" fill="white"/>
<path d="M74.3257 98.3837C74.7914 100.609 74.9078 102.72 74.6726 104.715C74.435 106.712 73.8899 108.498 73.0354 110.078C72.1799 111.654 71.0298 112.989 69.5855 114.081C68.1436 115.168 66.4346 115.925 64.4576 116.338C62.482 116.755 60.6138 116.756 58.8563 116.343C57.0979 115.927 55.5077 115.174 54.0895 114.075C52.6723 112.976 51.4538 111.562 50.4301 109.831C49.4098 108.098 48.6646 106.12 48.1983 103.894C47.7236 101.638 47.6062 99.5132 47.8438 97.5165C48.0814 95.5198 48.627 93.7334 49.4844 92.1525C50.3302 90.5871 51.5101 89.2284 52.9399 88.1735C54.3875 87.0984 56.097 86.3532 58.0726 85.9365C60.0482 85.5193 61.9141 85.5122 63.6696 85.9112C65.4025 86.2996 67.0285 87.067 68.4316 88.1587C69.8488 89.2571 71.0674 90.6712 72.0882 92.4037C73.1038 94.1344 73.8514 96.1272 74.3257 98.3833V98.3837ZM57.1739 102C57.5337 103.713 57.9495 105.251 58.4238 106.614C58.8981 107.975 59.4114 109.112 59.9636 110.032C60.5159 110.953 61.1037 111.62 61.722 112.04C62.3427 112.46 62.9815 112.599 63.6373 112.46C64.2965 112.319 64.8235 111.934 65.2208 111.3C65.6181 110.666 65.8952 109.816 66.044 108.749C66.196 107.681 66.2151 106.43 66.1 104.993C65.985 103.556 65.7484 101.983 65.3867 100.266C65.0212 98.521 64.6006 96.9701 64.1263 95.6085C63.652 94.2469 63.1307 93.1093 62.5656 92.194C61.9963 91.2772 61.4041 90.6083 60.7844 90.1921C60.1666 89.772 59.5245 89.6333 58.8686 89.7725C58.2095 89.9132 57.682 90.2979 57.2851 90.9325C56.8878 91.5665 56.6217 92.4161 56.4834 93.4817C56.3484 94.5463 56.336 95.7959 56.4515 97.2324C56.5684 98.6645 56.8084 100.255 57.1739 102Z" fill="white"/>
<path d="M91.4291 97.1042L83.4035 97.4246L83.6863 104.379L88.4088 104.19L91.5179 102.729L91.8154 110.005L88.5961 108.799L83.8735 108.987L84.2561 118.334L86.9161 121.642L73.6215 122.175L76.0058 118.667L75.0838 96.0568L72.4238 92.749L94.387 91.8699L94.7406 100.528L91.4291 97.1042ZM115.544 82.4076L112.316 79.6582L89.8327 78.1955L86.2835 80.5058L87.6979 58.2002L96.3084 58.7609L92.5811 61.7063L92.0554 70.0319L98.9708 70.482L99.2726 65.6977L98.1424 62.4858L105.377 62.9554L103.851 65.9966L103.548 70.7804L111.104 71.2729L111.624 62.9425L108.299 59.5389L116.956 60.1034L115.544 82.4076Z" fill="white"/>
<path d="M102.028 115.155L103.115 111.048L94.7645 90.0208L91.1621 87.7882L111.832 79.5293L115.03 87.5789L110.778 85.4568L103.064 88.5386L105.632 95.0068L110.066 93.2356L112.47 90.8375L115.158 97.6027L111.769 97.5198L107.335 99.2909L110.14 106.356L117.854 103.274L119.486 98.8003L122.702 106.895L102.028 115.155ZM70.531 68.4108L68.7013 76.262L75.448 77.8577L76.5239 73.237L75.9513 69.8358L83.0097 71.5064L80.9922 74.2954L79.9163 78.9162L88.9864 81.0606L92.8692 79.3753L89.8347 92.3841L87.1021 89.135L65.1659 83.9479L61.2836 85.6332L66.2942 64.1433L74.6919 66.1281L70.531 68.4108ZM35.1611 74.9772L28.4334 80.2978L33.012 86.1329L36.9718 83.0001L38.7459 79.7805L43.5364 85.884L40.0062 86.8604L36.0464 89.9927L42.2028 97.8387L46.5604 99.0273L35.4063 107.849L35.2756 103.318L20.3912 84.3431L16.0332 83.1541L34.4463 68.5891L40.1464 75.8554L35.1611 74.9772Z" fill="white"/>
<path d="M53.0469 88.1932L52.1097 83.7584L34.112 67.808L29.5762 67.3918L39.19 56.4487L40.1966 60.8812L58.1943 76.8316L62.6607 77.2497L53.0469 88.1932Z" fill="white"/>
<path d="M69.8834 41.9968C70.1543 43.1467 70.2398 44.2447 70.1338 45.2974C70.0307 46.3491 69.766 47.3213 69.3402 48.2166C68.928 49.0882 68.3657 49.88 67.6792 50.5556C67.01 51.213 66.2373 51.7552 65.3923 52.1604L65.4721 52.497C65.9388 52.4869 66.4236 52.5847 66.923 52.7849C67.424 52.988 67.8987 53.2278 68.3521 53.5063C68.7685 53.7606 69.1641 54.0476 69.5355 54.3644C69.872 54.6562 70.112 54.8831 70.2512 55.0543L73.1008 59.0266C73.6236 59.6798 74.249 60.1189 74.9728 60.3511C75.6966 60.5828 76.5264 60.4703 77.4589 60.014C77.331 60.6171 77.091 61.1544 76.7327 61.6274C76.3712 62.1032 75.933 62.5151 75.4362 62.846C74.9225 63.1883 74.3761 63.4785 73.8051 63.7122C73.223 63.952 72.6793 64.1313 72.1717 64.251C70.6148 64.6214 69.2618 64.7153 68.1131 64.5323C66.9639 64.3497 65.9065 63.6493 64.9479 62.4278L60.7852 56.9451C60.3969 56.4321 59.8665 56.0359 59.1974 55.7556C58.5282 55.4753 57.89 55.4099 57.2874 55.5535L59.0078 62.8269L62.4638 65.7447L48.6031 69.0343L50.3863 64.8722L44.8325 41.3775L41.377 38.4593L54.3337 35.3837C56.2052 34.9384 58.005 34.7491 59.7316 34.8092C61.4563 34.874 63.0165 35.1849 64.4037 35.7479C65.7943 36.3095 66.9663 37.12 67.9206 38.1718C68.8773 39.2221 69.5317 40.496 69.8834 41.9968ZM61.0342 44.3501C60.7401 43.1057 60.3 42.1322 59.7168 41.4295C59.1304 40.7286 58.4826 40.2156 57.7716 39.8967C57.0578 39.5787 56.3269 39.4314 55.5812 39.4581C54.8322 39.4857 54.1697 39.6163 53.5871 39.8562L56.2356 51.0538C57.0445 51.0648 57.7911 50.9298 58.4788 50.6476C59.1537 50.3757 59.7502 49.9391 60.2144 49.3775C60.6835 48.8111 61.0057 48.1103 61.1792 47.2798C61.3427 46.4421 61.298 45.4657 61.0338 44.3501H61.0342Z" fill="white"/>
<path d="M94.6345 47.5181C94.8997 49.2364 94.7704 50.7567 94.2509 52.0817C93.7282 53.4075 92.9649 54.5513 91.9583 55.5224C90.9499 56.4902 89.7836 57.2683 88.4548 57.8552C87.1265 58.4421 85.7991 58.8388 84.476 59.0433C83.3796 59.2121 82.3564 59.3136 81.4002 59.3436C80.5274 59.3744 79.6539 59.3854 78.7806 59.3765C77.9869 59.367 77.2484 59.3565 76.5721 59.3436C75.8925 59.3322 75.2947 59.3661 74.7819 59.4471C74.5552 59.4829 74.3175 59.6016 74.0699 59.8066C73.8228 60.0116 73.6175 60.2395 73.4583 60.4979L71.2617 46.259C71.7246 47.5233 72.3839 48.7063 73.215 49.7641C74.0581 50.8454 74.9867 51.7699 75.9952 52.5422C77.0065 53.3136 78.0369 53.9019 79.0886 54.3034C80.1403 54.7038 81.1345 54.834 82.0698 54.6895C82.6607 54.5992 83.2444 54.4673 83.8168 54.2948C84.3686 54.127 84.8562 53.9105 85.2768 53.6469C85.6974 53.3837 86.0196 53.0514 86.2378 52.6538C86.4559 52.2562 86.5243 51.7813 86.4397 51.2306C86.3067 50.3567 85.9564 49.5892 85.3899 48.9279C84.8244 48.2704 84.102 47.7103 83.2223 47.2468C82.3431 46.7868 81.3327 46.3953 80.195 46.074C78.9937 45.7392 77.7771 45.4625 76.5493 45.2449C74.6122 44.8826 72.908 44.0673 71.4404 42.7992C69.9742 41.5343 69.0523 39.6869 68.6778 37.2564C68.4672 35.8957 68.5837 34.6189 69.0285 33.4213C69.47 32.2251 70.1634 31.1391 71.103 30.166C72.0421 29.1925 73.196 28.3748 74.5628 27.7164C75.9291 27.0585 77.4357 26.6008 79.0805 26.3476C80.7914 26.0826 82.3726 26.023 83.8292 26.1593C85.2873 26.2985 86.5158 26.2928 87.5171 26.1364C87.7438 26.1002 87.9815 25.9815 88.2291 25.777C88.4767 25.572 88.6663 25.3431 88.7922 25.0942L90.5934 36.7581C90.179 35.7932 89.574 34.9169 88.7751 34.1303C87.981 33.3464 87.086 32.6726 86.1137 32.1269C85.1658 31.5925 84.1463 31.1975 83.0864 30.9541C82.0423 30.7181 81.0694 30.669 80.165 30.8082C79.003 30.9884 78.0159 31.3736 77.1961 31.9629C76.3782 32.5555 76.0327 33.2544 76.1587 34.064C76.2551 34.6809 76.66 35.1796 77.3796 35.5667C78.0986 35.9529 78.9859 36.3057 80.0443 36.6218C81.0994 36.9393 82.2623 37.2583 83.535 37.5729C84.7935 37.8878 86.0295 38.287 87.2348 38.7677C89.3131 39.6096 90.977 40.7019 92.225 42.0516C93.4772 43.3922 94.279 45.2173 94.6345 47.5181ZM34.3405 52.813C35.7482 56.3076 35.6256 59.4099 33.9707 62.1151C32.3159 64.8202 29.2952 67.0619 24.9087 68.8397L12.3355 73.9363L13.4732 69.5511L4.45584 47.162L0.601562 44.8006L12.4001 40.0187C13.5507 39.5515 14.8153 39.11 16.194 38.6933C17.5723 38.2762 18.9068 38.0259 20.1952 37.9472C21.4831 37.868 22.6413 38.0177 23.6749 38.3925C24.7062 38.7715 25.4495 39.5214 25.9024 40.6456C26.1319 41.2041 26.2305 41.8079 26.1904 42.4106C26.1515 43.007 26.0125 43.5926 25.7793 44.1427C25.5363 44.7122 25.2056 45.2399 24.7994 45.7064C24.3848 46.1895 23.9075 46.6146 23.3803 46.9703L23.4539 47.1529C24.0238 46.9932 24.8103 46.9384 25.8183 46.9923C26.8249 47.0428 27.8681 47.2759 28.9497 47.6869C30.0314 48.0983 31.0613 48.7129 32.0422 49.5377C33.0212 50.3482 33.7883 51.4418 34.3405 52.813ZM17.6355 44.8869C17.4639 44.4611 17.1992 44.136 16.8437 43.9071C16.4887 43.6783 16.0847 43.5329 15.6366 43.4685C15.1879 43.4046 14.7179 43.4352 14.2251 43.5639C13.7318 43.6931 13.2532 43.8871 12.7965 44.1431L14.688 48.8392C15.8029 48.4578 16.6531 47.9086 17.2434 47.1925C17.8351 46.4793 17.9667 45.7103 17.6355 44.8869ZM25.9376 56.588C25.6 55.7564 25.1217 54.9896 24.5237 54.3215C23.9267 53.6447 23.195 53.1009 22.3756 52.7253C21.5567 52.3491 20.64 52.1727 19.6291 52.1951C18.6183 52.2171 17.5395 52.5126 16.396 53.0805L21.6485 66.1217C22.8566 65.6321 23.8351 65.0233 24.5808 64.2957C25.3264 63.5692 25.8544 62.7811 26.161 61.9305C26.4694 61.0837 26.5998 60.182 26.544 59.2821C26.4924 58.3565 26.2874 57.446 25.9376 56.588Z" fill="white"/>
<path d="M113.281 31.6063L108.604 32.8759L114.408 54.331L117.967 57.1849L104.127 60.9466L105.808 56.6691L100.004 35.214L95.3275 36.4831L92.7065 41.9835L90.0622 32.2042L115.669 25.243L118.313 35.0223L113.281 31.6063ZM22.2893 12.2251L39.6074 18.0621C41.3401 18.6452 42.725 19.4514 43.7601 20.4745C44.7952 21.4967 45.5456 22.6051 46.008 23.7999C46.4709 24.9946 46.6981 26.2032 46.6848 27.4232C46.6734 28.6466 46.5051 29.7393 46.1858 30.7033L45.3161 33.3146C44.7999 34.8688 44.1246 36.249 43.2901 37.4557C42.4593 38.6605 41.4556 39.6302 40.2827 40.3553C39.1112 41.0833 37.7624 41.5105 36.2407 41.6359C34.7185 41.7608 33.0271 41.511 31.1698 40.885L14.6045 35.2979L10.3125 36.7024L14.9562 22.7653L17.5387 26.4888L34.4837 32.2004C35.5986 32.5761 36.5553 32.7773 37.3566 32.8059C38.1583 32.8354 38.8327 32.7148 39.384 32.454C39.928 32.1995 40.3919 31.8001 40.7251 31.2993C41.0659 30.7925 41.3549 30.1837 41.5934 29.4685C41.8097 28.8178 41.9242 28.1899 41.9375 27.5882C41.9499 26.9966 41.8066 26.4122 41.5221 25.8938C41.2351 25.3651 40.777 24.8726 40.1539 24.4206C39.5308 23.9691 38.7058 23.5696 37.6855 23.2268L20.5499 17.4461L16.2607 18.8492L19.692 8.54883L22.2888 12.2251H22.2893ZM128.617 100.496C129.009 101.469 129.004 102.459 128.603 103.471C128.199 104.485 127.501 105.192 126.503 105.596C126.027 105.791 125.514 105.881 125 105.859C124.498 105.842 124.003 105.728 123.544 105.522C123.085 105.312 122.665 105.025 122.304 104.672C121.931 104.315 121.639 103.882 121.448 103.401C121.253 102.923 121.163 102.408 121.184 101.891C121.201 101.386 121.304 100.887 121.487 100.416C121.675 99.9474 121.951 99.5203 122.301 99.1579C122.656 98.7837 123.087 98.4908 123.565 98.2992C124.041 98.1044 124.554 98.0146 125.068 98.036C125.577 98.056 126.077 98.1674 126.546 98.365C127.011 98.5646 127.432 98.8534 127.787 99.2151C128.144 99.5834 128.426 100.018 128.617 100.496H128.617Z" fill="white"/>
<path d="M74.6789 23.1313L72.4381 18.8119L52.815 29.0641L50.8037 33.1661L44.1716 20.3823L48.6941 21.1242L68.3172 10.8715L66.0764 6.55154L60.1662 5.15368L69.1094 0.481445L81.377 24.1287L72.4338 28.8004L74.6789 23.1313ZM121.303 49.446C121.3 51.1504 120.985 52.6236 120.362 53.867C119.74 55.1109 119.086 56.0763 118.398 56.7609C118.234 56.9245 118.036 57.0046 117.809 57.0036C117.646 57.0026 117.515 56.944 117.417 56.831C117.318 56.7142 117.301 56.5426 117.369 56.3137C117.467 56.0506 117.572 55.7321 117.688 55.3573C117.803 54.9793 117.861 54.646 117.861 54.3514C117.862 54.0234 117.798 53.7435 117.668 53.5132C117.538 53.2825 117.245 53.2 116.789 53.2625C115.776 53.3898 114.945 53.067 114.292 52.2951C113.641 51.5237 113.317 50.5631 113.321 49.4136C113.325 48.3647 113.701 47.456 114.453 46.6894C115.204 45.9223 116.151 45.539 117.295 45.5442C117.882 45.5452 118.423 45.6539 118.91 45.8703C119.384 46.0763 119.815 46.3689 120.181 46.7333C120.533 47.0877 120.815 47.5061 121.011 47.9662C121.206 48.431 121.303 48.9211 121.303 49.446ZM122.878 82.6365C123.655 84.5646 122.757 86.6909 120.797 87.4852C118.858 88.2714 116.699 87.3841 115.922 85.4556C115.162 83.5686 116.101 81.4256 118.039 80.6399C120.003 79.8437 122.118 80.7495 122.878 82.6361V82.6365ZM116.792 85.1028C117.402 86.618 119.002 87.3674 120.529 86.7481C122.015 86.146 122.624 84.5016 122.022 83.0056C121.413 81.4933 119.826 80.7128 118.319 81.324C116.811 81.9352 116.191 83.6101 116.792 85.1028ZM119.595 86.0387L118.811 86.3567L117.44 82.9545C117.724 82.7653 118.141 82.5512 118.699 82.3252C119.34 82.0654 119.669 82.0516 119.976 82.0978C120.22 82.1674 120.475 82.38 120.608 82.71C120.758 83.0818 120.586 83.4909 120.225 83.7827L120.242 83.8242C120.62 83.816 120.907 83.9862 121.194 84.4029C121.505 84.8806 121.653 85.0628 121.786 85.1543L120.941 85.4966C120.789 85.4132 120.6 85.1281 120.339 84.7758C120.125 84.4268 119.854 84.3457 119.421 84.5216L119.051 84.6713L119.601 86.0363L119.595 86.0387ZM118.837 84.1026L119.21 83.9514C119.644 83.7755 119.936 83.489 119.794 83.1371C119.669 82.8263 119.359 82.71 118.861 82.9111C118.715 82.9679 118.575 83.0408 118.445 83.1286L118.837 84.1026Z" fill="white"/>
</svg>
